# This file uses centimeters as units for non-parametric coordinates.

v -0.567717 -0.633498 0.162412
v 0.401396 -0.649620 0.408503
v -0.637836 0.305167 0.500038
v 0.331276 0.289044 0.746130
v -0.401396 0.649620 -0.408503
v 0.567717 0.633498 -0.162412
v -0.331276 -0.289044 -0.746130
v 0.637836 -0.305167 -0.500038
vt 0.375000 0.000000
vt 0.625000 0.000000
vt 0.375000 0.250000
vt 0.625000 0.250000
vt 0.375000 0.500000
vt 0.625000 0.500000
vt 0.375000 0.750000
vt 0.625000 0.750000
vt 0.375000 1.000000
vt 0.625000 1.000000
vt 0.875000 0.000000
vt 0.875000 0.250000
vt 0.125000 0.000000
vt 0.125000 0.250000
vn -0.236441 -0.344454 0.908541
vn -0.236441 -0.344454 0.908541
vn -0.236441 -0.344454 0.908541
vn -0.236441 -0.344454 0.908541
vn -0.070119 0.938665 0.337626
vn -0.070119 0.938665 0.337626
vn -0.070119 0.938665 0.337626
vn -0.070119 0.938665 0.337626
vn 0.236441 0.344454 -0.908541
vn 0.236441 0.344454 -0.908541
vn 0.236441 0.344454 -0.908541
vn 0.236441 0.344454 -0.908541
vn 0.070119 -0.938665 -0.337626
vn 0.070119 -0.938665 -0.337626
vn 0.070119 -0.938665 -0.337626
vn 0.070119 -0.938665 -0.337626
vn 0.969113 -0.016122 0.246091
vn 0.969113 -0.016122 0.246091
vn 0.969113 -0.016122 0.246091
vn 0.969113 -0.016122 0.246091
vn -0.969113 0.016122 -0.246091
vn -0.969113 0.016122 -0.246091
vn -0.969113 0.016122 -0.246091
vn -0.969113 0.016122 -0.246091
f 1/1/1 2/2/2 3/3/3
f 3/3/3 2/2/2 4/4/4
f 3/3/5 4/4/6 5/5/7
f 5/5/7 4/4/6 6/6/8
f 5/5/9 6/6/10 7/7/11
f 7/7/11 6/6/10 8/8/12
f 7/7/13 8/8/14 1/9/15
f 1/9/15 8/8/14 2/10/16
f 2/2/17 8/11/18 4/4/19
f 4/4/19 8/11/18 6/12/20
f 7/13/21 1/1/22 5/14/23
f 5/14/23 1/1/22 3/3/24
