# This file uses centimeters as units for non-parametric coordinates.

v -0.915273 0.232222 0.514550
v 0.372119 0.007211 1.008905
v -0.915273 0.255417 0.525108
v 0.372119 0.030406 1.019462
v -0.372119 0.788741 -0.646619
v 0.915273 0.563730 -0.152265
v -0.372119 0.765545 -0.657177
v 0.915273 0.540535 -0.162822
v -0.878924 0.249064 0.539066
v -0.335770 0.782387 -0.632661
v -0.335770 0.759192 -0.643219
v -0.878924 0.225869 0.528508
v -0.845765 0.243268 0.551799
v -0.302611 0.776592 -0.619928
v -0.302611 0.753397 -0.630486
v -0.845765 0.220073 0.541241
v 0.322618 0.039058 1.000454
v 0.865773 0.572382 -0.171273
v 0.865773 0.549186 -0.181830
v 0.322618 0.015863 0.989897
v 0.297793 0.043397 0.990921
v 0.840947 0.576721 -0.180806
v 0.840947 0.553525 -0.191363
v 0.297793 0.020202 0.980364
v 0.399120 0.056919 0.961214
v 0.349620 0.065571 0.942206
v 0.324794 0.069910 0.932673
v -0.818764 0.269781 0.493550
v -0.851923 0.275576 0.480817
v -0.888272 0.281929 0.466859
v -0.888272 0.258734 0.456301
v -0.851923 0.252381 0.470259
v -0.818764 0.246586 0.482992
v 0.324794 0.046714 0.922115
v 0.349620 0.042375 0.931648
v 0.399120 0.033724 0.950656
v 0.413943 0.071473 0.929237
v 0.364442 0.080125 0.910229
v 0.339617 0.084464 0.900696
v -0.803941 0.284335 0.461573
v -0.837100 0.290131 0.448840
v -0.873449 0.296484 0.434882
v -0.873449 0.273289 0.424325
v -0.837100 0.266936 0.438283
v -0.803941 0.261140 0.451016
v 0.339617 0.061269 0.890138
v 0.364442 0.056930 0.899671
v 0.413943 0.048278 0.918680
v 0.898154 0.546920 -0.115334
v 0.848653 0.555572 -0.134342
v 0.823827 0.559911 -0.143875
v -0.319730 0.759782 -0.582997
v -0.352889 0.765578 -0.595730
v -0.389238 0.771931 -0.609688
v -0.389238 0.748736 -0.620246
v -0.352889 0.742383 -0.606288
v -0.319730 0.736587 -0.593555
v 0.823827 0.536716 -0.154432
v 0.848653 0.532377 -0.144899
v 0.898154 0.523725 -0.125891
v 0.880860 0.529940 -0.078027
v 0.831360 0.538592 -0.097035
v 0.806534 0.542931 -0.106568
v -0.337023 0.742802 -0.545691
v -0.370182 0.748598 -0.558424
v -0.406532 0.754951 -0.572382
v -0.406532 0.731756 -0.582940
v -0.370182 0.725402 -0.568982
v -0.337023 0.719607 -0.556249
v 0.806534 0.519736 -0.117126
v 0.831360 0.515397 -0.107593
v 0.880860 0.506745 -0.088585
v -0.851923 -0.543571 0.107974
v -0.818764 -0.549366 0.120707
v -0.837100 -0.529016 0.075997
v -0.803941 -0.534811 0.088730
v 0.324794 -0.749237 0.559830
v 0.349620 -0.753576 0.569363
v 0.339617 -0.734683 0.527853
v 0.364442 -0.739022 0.537386
v -0.370182 -0.070549 -0.931267
v -0.337023 -0.076345 -0.918534
v -0.352889 -0.053569 -0.968573
v -0.319730 -0.059365 -0.955840
v 0.806534 -0.276216 -0.479412
v 0.831360 -0.280555 -0.469879
v 0.823827 -0.259236 -0.516718
v 0.848653 -0.263575 -0.507185
vt 0.426658 0.589462
vt 0.426657 0.600036
vt 0.408049 0.600035
vt 0.408045 0.589461
vt 0.426657 0.609681
vt 0.408049 0.609679
vt 0.426657 0.942340
vt 0.408049 0.942344
vt 0.426657 0.949556
vt 0.426658 0.963956
vt 0.408045 0.963957
vt 0.408049 0.949556
vt 0.397821 0.963956
vt 0.397820 0.949556
vt 0.397820 0.942344
vt 0.397820 0.609679
vt 0.397820 0.600035
vt 0.397821 0.589461
vt 0.075892 0.963957
vt 0.075891 0.949556
vt 0.075891 0.942344
vt 0.075891 0.609679
vt 0.075891 0.600035
vt 0.075892 0.589461
vt 0.063970 0.949556
vt 0.063970 0.963956
vt 0.052164 0.963957
vt 0.052162 0.949556
vt 0.063970 0.942344
vt 0.052162 0.942340
vt 0.063970 0.609679
vt 0.052162 0.609681
vt 0.063970 0.600035
vt 0.052162 0.600036
vt 0.063970 0.589461
vt 0.052164 0.589462
vt 0.547749 0.589463
vt 0.547749 0.600036
vt 0.529132 0.600036
vt 0.529132 0.589463
vt 0.547749 0.609682
vt 0.529132 0.609682
vt 0.547748 0.942335
vt 0.529132 0.942335
vt 0.529132 0.949556
vt 0.547748 0.949556
vt 0.547748 0.963956
vt 0.529132 0.963956
vt 0.557968 0.589463
vt 0.557968 0.600036
vt 0.557968 0.609682
vt 0.557968 0.942335
vt 0.557968 0.949556
vt 0.557968 0.963956
vt 0.879898 0.589463
vt 0.879898 0.600036
vt 0.879898 0.609682
vt 0.879898 0.942335
vt 0.879898 0.949556
vt 0.879898 0.963956
vt 0.903625 0.589463
vt 0.903625 0.600036
vt 0.891821 0.600036
vt 0.891821 0.589463
vt 0.891821 0.609682
vt 0.903625 0.609682
vt 0.891821 0.942335
vt 0.903625 0.942335
vt 0.891821 0.949556
vt 0.903625 0.949556
vt 0.891821 0.963956
vt 0.903625 0.963956
vt 0.426659 0.970787
vt 0.408042 0.970787
vt 0.397822 0.970787
vt 0.075893 0.970787
vt 0.063970 0.970787
vt 0.052166 0.970787
vt 0.408042 0.582631
vt 0.426659 0.582631
vt 0.397822 0.582631
vt 0.075893 0.582631
vt 0.063969 0.582631
vt 0.052166 0.582631
vt 0.433488 0.589464
vt 0.433488 0.600037
vt 0.433488 0.609683
vt 0.433488 0.942336
vt 0.433488 0.949557
vt 0.433488 0.963957
vt 0.045332 0.600037
vt 0.045332 0.589464
vt 0.045332 0.609683
vt 0.045332 0.942336
vt 0.045332 0.949557
vt 0.045332 0.963956
vt 0.271331 0.513387
vt 0.261111 0.513387
vt 0.261111 0.279001
vt 0.271331 0.279001
vt 0.368819 0.513387
vt 0.358599 0.513387
vt 0.358599 0.279001
vt 0.368819 0.279001
vt 0.457280 0.513387
vt 0.447060 0.513387
vt 0.447060 0.279001
vt 0.457280 0.279001
vt 0.545741 0.513387
vt 0.535521 0.513387
vt 0.535521 0.279001
vt 0.545741 0.279001
vt 0.653501 0.499080
vt 0.641578 0.499080
vt 0.641578 0.264694
vt 0.653501 0.264694
vt 0.675070 0.499080
vt 0.663147 0.499080
vt 0.663147 0.264694
vt 0.675070 0.264694
vt 0.848091 0.513387
vt 0.836167 0.513387
vt 0.836167 0.279001
vt 0.848091 0.279001
vt 0.943773 0.513387
vt 0.931850 0.513387
vt 0.931850 0.279001
vt 0.943773 0.279001
vt 0.381657 0.159029
vt 0.372011 0.159029
vt 0.372011 0.148809
vt 0.381657 0.148809
vt 0.409511 0.206156
vt 0.402290 0.206156
vt 0.402290 0.195936
vt 0.409511 0.195936
vt 0.653501 0.255048
vt 0.641578 0.255048
vt 0.337382 0.163500
vt 0.330161 0.163500
vt 0.330161 0.151576
vt 0.337382 0.151576
vt 0.222705 0.513387
vt 0.213059 0.513387
vt 0.213059 0.279001
vt 0.222705 0.279001
vt 0.310727 0.279001
vt 0.320373 0.279001
vt 0.320373 0.513387
vt 0.310727 0.513387
vt 0.411498 0.513387
vt 0.404276 0.513387
vt 0.404276 0.279001
vt 0.411498 0.279001
vt 0.492737 0.279001
vt 0.499959 0.279001
vt 0.499959 0.513387
vt 0.492737 0.513387
vt 0.631932 0.499080
vt 0.631932 0.264694
vt 0.797838 0.513387
vt 0.790616 0.513387
vt 0.790616 0.279001
vt 0.797838 0.279001
vt 0.886299 0.279001
vt 0.893520 0.279001
vt 0.893520 0.513387
vt 0.886299 0.513387
vn -0.388725 -0.381687 0.838575
vn -0.388722 -0.381687 0.838576
vn -0.388723 -0.381687 0.838576
vn -0.388721 -0.381687 0.838577
vn -0.000001 0.910156 0.414266
vn 0.000000 0.910156 0.414267
vn -0.000001 0.910155 0.414267
vn -0.000000 0.910155 0.414267
vn 0.388724 0.381686 -0.838576
vn 0.388722 0.381686 -0.838577
vn 0.388723 0.381685 -0.838577
vn 0.388721 0.381684 -0.838578
vn 0.000001 -0.910156 -0.414265
vn 0.000000 -0.910156 -0.414266
vn 0.000001 -0.910156 -0.414267
vn 0.000000 -0.910155 -0.414267
vn 0.921355 -0.161036 0.353796
vn 0.921355 -0.161034 0.353798
vn 0.921355 -0.161035 0.353797
vn 0.921355 -0.161035 0.353798
vn -0.921355 0.161033 -0.353798
vn -0.921355 0.161035 -0.353798
vn -0.921355 0.161033 -0.353798
vn -0.921355 0.161035 -0.353798
vn 0.000000 0.910155 0.414267
vn 0.000000 0.910156 0.414267
vn 0.388722 0.381687 -0.838576
vn 0.388722 0.381687 -0.838576
vn -0.000000 -0.910156 -0.414266
vn -0.000000 -0.910156 -0.414267
vn -0.388722 -0.381686 0.838577
vn -0.388722 -0.381686 0.838577
vn 0.000000 0.910156 0.414266
vn 0.000000 0.910156 0.414266
vn 0.388722 0.381687 -0.838576
vn 0.388722 0.381687 -0.838576
vn -0.000000 -0.910156 -0.414266
vn -0.000000 -0.910156 -0.414267
vn -0.388722 -0.381687 0.838576
vn -0.388722 -0.381687 0.838576
vn 0.000001 0.910156 0.414267
vn 0.000000 0.910156 0.414266
vn 0.000000 0.910156 0.414267
vn 0.000000 0.910156 0.414266
vn 0.388722 0.381688 -0.838576
vn 0.388722 0.381688 -0.838576
vn 0.388722 0.381687 -0.838576
vn 0.388722 0.381686 -0.838577
vn 0.000000 -0.910156 -0.414266
vn -0.000000 -0.910156 -0.414266
vn -0.000000 -0.910156 -0.414266
vn -0.000001 -0.910156 -0.414266
vn -0.388724 -0.381684 0.838577
vn -0.388725 -0.381684 0.838577
vn -0.388724 -0.381685 0.838576
vn -0.388724 -0.381686 0.838575
vn -0.000000 0.910155 0.414267
vn -0.000000 0.910156 0.414267
vn -0.000000 0.910156 0.414267
vn 0.000000 0.910156 0.414267
vn -0.000000 0.910156 0.414266
vn -0.000000 0.910156 0.414267
vn -0.921355 0.161036 -0.353798
vn -0.921355 0.161036 -0.353798
vn 0.000000 -0.910155 -0.414267
vn -0.000000 -0.910155 -0.414267
vn -0.000000 -0.910156 -0.414265
vn 0.000000 -0.910156 -0.414266
vn 0.000000 -0.910156 -0.414266
vn 0.000001 -0.910155 -0.414268
vn 0.000000 -0.910156 -0.414267
vn -0.000000 -0.910156 -0.414267
vn 0.000000 -0.910156 -0.414266
vn -0.000001 -0.910156 -0.414266
vn -0.000001 -0.910156 -0.414265
vn -0.000001 -0.910156 -0.414265
vn 0.000000 -0.910156 -0.414266
vn 0.000000 -0.910156 -0.414266
vn 0.921355 -0.161036 0.353797
vn 0.921355 -0.161036 0.353797
vn 0.000000 0.910155 0.414267
vn -0.000000 0.910155 0.414267
vn 0.000000 0.910156 0.414267
vn 0.000000 0.910156 0.414267
vn 0.000000 0.910155 0.414267
vn 0.000000 0.910156 0.414267
vn -0.921355 0.161035 -0.353798
vn -0.921355 0.161035 -0.353798
vn 0.000000 -0.910156 -0.414266
vn -0.000000 -0.910156 -0.414266
vn -0.000000 -0.910156 -0.414267
vn -0.000000 -0.910156 -0.414267
vn -0.000000 -0.910155 -0.414267
vn 0.000001 -0.910156 -0.414267
vn 0.921355 -0.161033 0.353798
vn 0.921355 -0.161033 0.353797
vn 0.000000 0.910156 0.414266
vn 0.000000 0.910156 0.414266
vn -0.000000 0.910156 0.414266
vn -0.000000 0.910155 0.414268
vn 0.000000 0.910156 0.414266
vn -0.000000 0.910156 0.414265
vn -0.000000 0.910155 0.414267
vn 0.000000 0.910155 0.414268
vn -0.000000 0.910155 0.414267
vn 0.000000 0.910155 0.414267
vn 0.000001 0.910155 0.414267
vn 0.000000 0.910155 0.414267
vn -0.921355 0.161034 -0.353797
vn -0.921355 0.161035 -0.353798
vn -0.921355 0.161034 -0.353797
vn -0.921355 0.161035 -0.353798
vn 0.000000 -0.910155 -0.414267
vn 0.000000 -0.910155 -0.414268
vn -0.000001 -0.910156 -0.414266
vn -0.000000 -0.910156 -0.414266
vn -0.000000 -0.910156 -0.414267
vn 0.000000 -0.910155 -0.414267
vn -0.000000 -0.910156 -0.414266
vn -0.000000 -0.910156 -0.414266
vn 0.000000 -0.910155 -0.414268
vn 0.000000 -0.910156 -0.414266
vn 0.000000 -0.910155 -0.414268
vn -0.000000 -0.910155 -0.414267
vn 0.921356 -0.161035 0.353796
vn 0.921356 -0.161035 0.353796
vn 0.921356 -0.161032 0.353798
vn 0.921355 -0.161031 0.353798
vn 0.000000 -0.910155 -0.414268
vn -0.000001 -0.910155 -0.414267
vn -0.000001 -0.910155 -0.414267
vn -0.000001 -0.910156 -0.414267
vn 0.000000 -0.910156 -0.414265
vn 0.000000 -0.910156 -0.414266
vn 0.000000 -0.910155 -0.414267
vn 0.000000 -0.910155 -0.414268
vn -0.388724 -0.381685 0.838577
vn -0.388723 -0.381685 0.838577
vn -0.388722 -0.381687 0.838577
vn -0.388722 -0.381687 0.838577
vn -0.921355 0.161035 -0.353798
vn -0.921355 0.161035 -0.353798
vn -0.921356 0.161033 -0.353797
vn -0.921356 0.161033 -0.353797
vn 0.388722 0.381685 -0.838577
vn 0.388722 0.381686 -0.838577
vn 0.388723 0.381687 -0.838576
vn 0.388723 0.381687 -0.838576
vn 0.921355 -0.161033 0.353798
vn 0.921355 -0.161033 0.353798
vn 0.921355 -0.161035 0.353797
vn 0.921355 -0.161035 0.353797
vn -0.388727 -0.381686 0.838574
vn -0.388727 -0.381686 0.838574
vn -0.388720 -0.381687 0.838577
vn -0.388719 -0.381687 0.838578
vn -0.921355 0.161035 -0.353798
vn -0.921355 0.161035 -0.353798
vn -0.921355 0.161035 -0.353798
vn -0.921355 0.161035 -0.353798
vn 0.388719 0.381687 -0.838578
vn 0.388719 0.381687 -0.838578
vn 0.388718 0.381689 -0.838578
vn 0.388718 0.381689 -0.838578
vn 0.921355 -0.161035 0.353797
vn 0.921355 -0.161035 0.353797
vn 0.921355 -0.161034 0.353797
vn 0.921355 -0.161034 0.353797
vn -0.388721 -0.381687 0.838577
vn -0.388721 -0.381687 0.838577
vn -0.388719 -0.381688 0.838578
vn -0.388719 -0.381688 0.838578
vn -0.921355 0.161035 -0.353797
vn -0.921355 0.161035 -0.353797
vn -0.921355 0.161034 -0.353797
vn -0.921355 0.161034 -0.353797
vn 0.388721 0.381687 -0.838577
vn 0.388721 0.381687 -0.838577
vn 0.388723 0.381687 -0.838576
vn 0.388723 0.381687 -0.838576
vn 0.921355 -0.161035 0.353798
vn 0.921355 -0.161035 0.353798
vn 0.921355 -0.161035 0.353799
vn 0.921355 -0.161035 0.353799
vn -0.388723 -0.381686 0.838577
vn -0.388723 -0.381686 0.838577
vn -0.388721 -0.381687 0.838577
vn -0.388721 -0.381687 0.838577
vn -0.921355 0.161034 -0.353797
vn -0.921355 0.161034 -0.353797
vn -0.921355 0.161034 -0.353797
vn -0.921355 0.161035 -0.353797
vn 0.388724 0.381687 -0.838575
vn 0.388724 0.381687 -0.838575
vn 0.388720 0.381687 -0.838577
vn 0.388720 0.381687 -0.838577
vn 0.921355 -0.161035 0.353797
vn 0.921355 -0.161035 0.353797
vn 0.921355 -0.161035 0.353797
vn 0.921355 -0.161035 0.353797
f 1/85/1 12/86/2 3/1/3
f 3/1/3 12/86/2 9/2/4
f 3/1/5 9/2/6 30/4/7
f 30/4/7 9/2/6 29/3/8
f 5/36/9 10/34/10 7/92/11
f 7/92/11 10/34/10 11/91/12
f 31/37/13 32/38/14 1/40/15
f 1/40/15 32/38/14 12/39/16
f 2/73/17 36/74/18 4/10/19
f 4/10/19 36/74/18 25/11/20
f 31/79/21 1/80/22 30/4/23
f 30/4/23 1/80/22 3/1/24
f 9/2/6 13/5/25 29/3/8
f 29/3/8 13/5/25 28/6/26
f 11/91/12 10/34/10 15/93/27
f 15/93/27 10/34/10 14/32/28
f 12/39/16 32/38/14 16/42/29
f 16/42/29 32/38/14 33/41/30
f 9/2/4 12/86/2 13/5/31
f 13/5/31 12/86/2 16/87/32
f 13/5/25 21/7/33 28/6/26
f 28/6/26 21/7/33 27/8/34
f 15/93/27 14/32/28 23/94/35
f 23/94/35 14/32/28 22/30/36
f 16/42/29 33/41/30 24/44/37
f 24/44/37 33/41/30 34/43/38
f 13/5/31 16/87/32 21/7/39
f 21/7/39 16/87/32 24/88/40
f 17/9/41 4/10/42 26/12/43
f 26/12/43 4/10/42 25/11/44
f 19/95/45 18/28/46 8/96/47
f 8/96/47 18/28/46 6/27/48
f 20/45/49 35/46/50 2/48/51
f 2/48/51 35/46/50 36/47/52
f 17/9/53 20/89/54 4/10/55
f 4/10/55 20/89/54 2/90/56
f 21/7/33 17/9/41 27/8/34
f 27/8/34 17/9/41 26/12/43
f 23/94/35 22/30/36 19/95/45
f 19/95/45 22/30/36 18/28/46
f 24/44/37 34/43/38 20/45/49
f 20/45/49 34/43/38 35/46/50
f 21/7/39 24/88/40 17/9/53
f 17/9/53 24/88/40 20/89/54
f 26/12/43 25/11/44 38/14/57
f 38/14/57 25/11/44 37/13/58
f 27/8/34 26/12/43 39/15/59
f 39/15/59 26/12/43 38/14/57
f 28/6/26 27/8/34 40/16/60
f 40/16/60 27/8/34 39/15/59
f 29/3/8 28/6/26 41/17/61
f 41/17/61 28/6/26 40/16/60
f 30/4/7 29/3/8 42/18/62
f 42/18/62 29/3/8 41/17/61
f 43/81/63 31/79/21 42/18/64
f 42/18/64 31/79/21 30/4/23
f 43/49/65 44/50/66 31/37/13
f 31/37/13 44/50/66 32/38/14
f 74/129/67 73/130/68 76/132/69
f 76/132/69 73/130/68 75/131/70
f 34/43/38 33/41/30 46/52/71
f 46/52/71 33/41/30 45/51/72
f 78/133/73 77/134/74 80/136/75
f 80/136/75 77/134/74 79/135/76
f 36/47/52 35/46/50 48/54/77
f 48/54/77 35/46/50 47/53/78
f 25/11/20 36/74/18 37/13/79
f 37/13/79 36/74/18 48/75/80
f 38/14/57 37/13/58 62/20/81
f 62/20/81 37/13/58 61/19/82
f 39/15/59 38/14/57 63/21/83
f 63/21/83 38/14/57 62/20/81
f 40/16/60 39/15/59 64/22/84
f 64/22/84 39/15/59 63/21/83
f 41/17/61 40/16/60 65/23/85
f 65/23/85 40/16/60 64/22/84
f 42/18/62 41/17/61 66/24/86
f 66/24/86 41/17/61 65/23/85
f 67/82/87 43/81/63 66/24/88
f 66/24/88 43/81/63 42/18/64
f 67/55/89 68/56/90 43/49/65
f 43/49/65 68/56/90 44/50/66
f 45/51/72 44/50/66 69/57/91
f 69/57/91 44/50/66 68/56/90
f 46/52/71 45/51/72 70/58/92
f 70/58/92 45/51/72 69/57/91
f 47/53/78 46/52/71 71/59/93
f 71/59/93 46/52/71 70/58/92
f 48/54/77 47/53/78 72/60/94
f 72/60/94 47/53/78 71/59/93
f 37/13/79 48/75/80 61/19/95
f 61/19/95 48/75/80 72/76/96
f 50/25/97 49/26/98 18/28/99
f 18/28/99 49/26/98 6/27/100
f 51/29/101 50/25/97 22/30/102
f 22/30/102 50/25/97 18/28/99
f 52/31/103 51/29/101 14/32/104
f 14/32/104 51/29/101 22/30/102
f 53/33/105 52/31/103 10/34/106
f 10/34/106 52/31/103 14/32/104
f 54/35/107 53/33/105 5/36/108
f 5/36/108 53/33/105 10/34/106
f 7/84/109 55/83/110 5/36/111
f 5/36/111 55/83/110 54/35/112
f 7/61/113 11/62/114 55/64/115
f 55/64/115 11/62/114 56/63/116
f 57/65/117 56/63/116 15/66/118
f 15/66/118 56/63/116 11/62/114
f 58/67/119 57/65/117 23/68/120
f 23/68/120 57/65/117 15/66/118
f 59/69/121 58/67/119 19/70/122
f 19/70/122 58/67/119 23/68/120
f 60/71/123 59/69/121 8/72/124
f 8/72/124 59/69/121 19/70/122
f 49/26/125 60/77/126 6/27/127
f 6/27/127 60/77/126 8/78/128
f 62/20/81 61/19/82 50/25/97
f 50/25/97 61/19/82 49/26/98
f 63/21/83 62/20/81 51/29/101
f 51/29/101 62/20/81 50/25/97
f 64/22/84 63/21/83 52/31/103
f 52/31/103 63/21/83 51/29/101
f 65/23/85 64/22/84 53/33/105
f 53/33/105 64/22/84 52/31/103
f 66/24/86 65/23/85 54/35/107
f 54/35/107 65/23/85 53/33/105
f 55/83/110 67/82/87 54/35/112
f 54/35/112 67/82/87 66/24/88
f 55/64/115 56/63/116 67/55/89
f 67/55/89 56/63/116 68/56/90
f 82/137/129 81/116/130 84/138/131
f 84/138/131 81/116/130 83/115/132
f 70/58/92 69/57/91 58/67/119
f 58/67/119 69/57/91 57/65/117
f 86/139/133 85/140/134 88/142/135
f 88/142/135 85/140/134 87/141/136
f 72/60/94 71/59/93 60/71/123
f 60/71/123 71/59/93 59/69/121
f 61/19/95 72/76/96 49/26/125
f 49/26/125 72/76/96 60/77/126
f 33/143/137 32/144/138 74/146/139
f 74/146/139 32/144/138 73/145/140
f 32/97/141 44/98/142 73/100/143
f 73/100/143 44/98/142 75/99/144
f 44/147/145 45/148/146 75/150/147
f 75/150/147 45/148/146 76/149/148
f 45/101/149 33/102/150 76/104/151
f 76/104/151 33/102/150 74/103/152
f 35/151/153 34/152/154 78/154/155
f 78/154/155 34/152/154 77/153/156
f 34/105/157 46/106/158 77/108/159
f 77/108/159 46/106/158 79/107/160
f 46/155/161 47/156/162 79/158/163
f 79/158/163 47/156/162 80/157/164
f 47/109/165 35/110/166 80/112/167
f 80/112/167 35/110/166 78/111/168
f 69/118/169 68/113/170 82/119/171
f 82/119/171 68/113/170 81/116/172
f 68/113/173 56/114/174 81/116/175
f 81/116/175 56/114/174 83/115/176
f 56/114/177 57/159/178 83/115/179
f 83/115/179 57/159/178 84/160/180
f 57/117/181 69/118/182 84/120/183
f 84/120/183 69/118/182 82/119/184
f 71/161/185 70/162/186 86/164/187
f 86/164/187 70/162/186 85/163/188
f 70/121/189 58/122/190 85/124/191
f 85/124/191 58/122/190 87/123/192
f 58/165/193 59/166/194 87/168/195
f 87/168/195 59/166/194 88/167/196
f 59/125/197 71/126/198 88/128/199
f 88/128/199 71/126/198 86/127/200
